<?xml version="1.0" standalone="no"?>
<!DOCTYPE svg PUBLIC "-//W3C//DTD SVG 20010904//EN"
 "http://www.w3.org/TR/2001/REC-SVG-20010904/DTD/svg10.dtd">
<svg version="1.0" xmlns="http://www.w3.org/2000/svg"
 width="752.000000pt" height="752.000000pt" viewBox="0 0 752.000000 752.000000"
 preserveAspectRatio="xMidYMid meet">
<metadata>
Created by potrace 1.14, written by Peter Selinger 2001-2017
</metadata>
<g transform="translate(0.000000,752.000000) scale(0.100000,-0.100000)"
fill="#000000" stroke="none">
<path d="M5658 6386 c-21 -8 -38 -12 -38 -10 0 1 -24 -4 -52 -13 -29 -8 -60
-17 -68 -18 -8 -2 -15 -4 -15 -5 0 -1 -9 -3 -19 -5 -26 -5 -240 -79 -246 -85
-3 -3 -12 -6 -20 -8 -31 -7 -189 -78 -300 -135 -136 -70 -331 -197 -450 -293
-121 -98 -330 -311 -364 -372 -5 -10 -15 -21 -21 -27 -17 -15 -105 -151 -105
-163 0 -6 -3 -12 -8 -14 -9 -4 -76 -149 -96 -210 -52 -158 -71 -296 -69 -503
1 -149 7 -222 29 -345 3 -14 7 -41 10 -60 7 -54 50 -260 84 -405 17 -71 38
-164 46 -205 9 -41 18 -84 21 -95 12 -54 21 -109 29 -165 3 -25 8 -56 11 -70
9 -45 11 -311 3 -341 -16 -55 8 -29 35 39 61 151 107 337 130 522 3 25 9 65
12 90 3 25 7 252 8 505 1 289 6 490 14 540 6 45 14 98 16 120 18 137 123 462
158 486 5 3 7 8 5 10 -5 7 58 112 106 175 93 124 218 234 328 290 56 29 62 29
53 7 -13 -32 -44 -181 -52 -250 -15 -133 -7 -602 11 -691 26 -125 27 -652 2
-789 -2 -10 -7 -43 -11 -73 -4 -30 -14 -84 -22 -120 -8 -36 -17 -76 -19 -90
-3 -14 -10 -41 -16 -60 -6 -19 -10 -35 -9 -35 1 0 -15 -45 -34 -100 -38 -108
-108 -263 -137 -307 -10 -14 -18 -31 -18 -37 0 -6 -4 -11 -10 -11 -5 0 -10 -5
-10 -11 0 -11 -69 -116 -104 -157 -134 -161 -237 -249 -394 -338 -82 -47 -88
-54 -26 -28 22 9 50 21 64 27 14 6 28 10 33 9 4 -1 7 2 7 6 0 4 15 13 33 20
43 16 203 108 230 132 11 11 24 20 29 20 12 0 136 107 208 179 136 137 263
319 342 490 21 47 44 95 49 106 6 12 11 27 13 35 2 8 9 29 15 45 39 93 86 276
111 435 6 36 13 76 15 90 14 83 24 265 40 719 6 151 10 240 20 381 13 179 32
338 56 455 5 28 12 66 15 85 3 19 8 38 11 43 2 4 6 18 9 31 2 12 15 57 28 98
65 198 159 339 282 424 70 48 71 51 12 30z"/>
<path d="M1195 6223 c9 -26 18 -59 21 -73 13 -53 68 -190 119 -296 91 -186
208 -347 351 -484 68 -64 79 -72 96 -61 27 17 116 65 189 101 l62 32 -54 30
c-74 43 -116 74 -171 131 -49 50 -110 141 -102 150 3 3 20 1 37 -4 92 -27 398
-29 537 -4 117 20 240 29 405 29 170 1 232 -5 353 -30 15 -3 40 -7 55 -10 15
-2 35 -8 45 -12 9 -5 32 -12 49 -15 18 -4 52 -15 75 -25 24 -10 63 -27 88 -37
25 -10 57 -27 72 -37 14 -10 29 -18 33 -18 14 0 137 -92 178 -134 59 -59 111
-124 136 -171 20 -37 31 -35 12 3 -5 9 -17 35 -28 57 -61 123 -118 201 -221
302 -183 178 -436 296 -724 338 -95 14 -146 16 -483 19 -440 5 -579 13 -711
40 -12 2 -37 7 -55 10 -52 8 -178 55 -229 84 -25 15 -69 51 -97 80 l-53 54 15
-49z"/>
<path d="M6707 5664 c-1 -1 -63 -4 -137 -8 -74 -4 -155 -9 -180 -12 -53 -6
-226 -32 -255 -38 -11 -3 -51 -11 -90 -20 -182 -39 -399 -118 -580 -209 -119
-61 -123 -64 -129 -117 -11 -93 -30 -459 -27 -518 1 -8 18 8 39 35 31 39 151
155 197 191 126 98 334 191 463 207 l53 6 -34 -48 c-49 -69 -99 -167 -147
-285 -23 -57 -43 -107 -44 -113 -1 -5 -14 -48 -29 -95 -21 -70 -46 -156 -52
-180 -4 -18 -19 -88 -21 -100 -2 -8 -7 -33 -13 -55 -15 -58 -34 -150 -33 -152
1 -2 -5 -21 -13 -43 -8 -22 -14 -41 -14 -43 2 -5 -25 -97 -51 -177 -100 -310
-286 -654 -462 -857 -113 -131 -295 -289 -418 -362 -140 -83 -335 -152 -470
-166 -97 -10 -67 -17 45 -11 278 16 519 87 760 225 45 26 154 99 172 115 6 6
26 22 44 36 159 120 358 359 491 590 113 196 153 292 367 867 55 149 110 292
121 317 12 24 23 51 24 58 4 19 23 63 58 137 17 37 32 68 33 71 2 12 98 195
120 230 14 22 25 44 25 50 0 5 5 10 10 10 6 0 10 5 10 10 0 6 29 50 64 98 53
72 121 143 216 227 29 25 155 85 193 91 46 8 49 24 5 25 -42 1 -198 8 -261 12
-26 2 -49 2 -50 1z"/>
<path d="M2737 5534 c-1 -1 -38 -4 -82 -8 -98 -7 -128 -12 -230 -37 -96 -24
-169 -47 -210 -64 -265 -111 -431 -213 -702 -431 -87 -70 -165 -133 -173 -141
-49 -41 -287 -227 -344 -268 -16 -11 -33 -25 -40 -30 -6 -6 -54 -38 -106 -72
-52 -34 -100 -66 -105 -70 -6 -4 -28 -17 -50 -28 -22 -11 -42 -22 -45 -25 -8
-8 -111 -57 -160 -75 -25 -9 -54 -21 -65 -26 -23 -9 -83 -25 -135 -35 -57 -10
-161 -6 -218 9 -49 13 -51 13 -35 -2 46 -41 283 -191 301 -191 6 0 12 -3 14
-8 4 -9 193 -102 268 -132 72 -29 181 -70 200 -75 73 -21 263 -67 295 -71 22
-3 45 -7 52 -9 7 -2 56 -7 110 -10 54 -4 103 -8 109 -10 6 -2 15 0 20 3 9 7
45 83 84 182 13 30 36 82 51 114 31 64 33 70 21 62 -4 -2 -28 -7 -52 -11 -25
-3 -57 -8 -72 -11 -45 -7 -169 -7 -228 0 -61 8 -97 17 -183 48 l-58 21 78 42
c173 92 279 179 553 455 335 336 408 396 700 570 26 16 164 81 175 83 6 1 12
5 15 8 8 8 148 56 230 78 68 18 91 22 185 37 58 10 253 11 316 2 90 -12 206
-42 265 -69 70 -32 71 -32 49 -14 -20 16 -166 90 -220 112 -113 44 -250 78
-365 89 -55 5 -209 11 -213 8z"/>
<path d="M3128 5165 c-2 -2 -30 -6 -63 -9 -33 -4 -89 -13 -125 -22 -36 -8 -75
-17 -87 -19 -46 -11 -198 -68 -271 -102 -287 -135 -556 -375 -746 -663 -30
-47 -59 -89 -63 -95 -5 -5 -24 -39 -42 -75 -19 -36 -38 -66 -43 -68 -4 -2 -8
-8 -8 -13 0 -6 -18 -49 -41 -97 -58 -125 -56 -122 -79 -182 -11 -30 -25 -64
-30 -75 -5 -11 -32 -83 -60 -160 -28 -77 -60 -162 -70 -190 -10 -27 -33 -88
-50 -135 -69 -183 -122 -315 -131 -324 -5 -6 -9 -15 -9 -22 0 -6 -17 -47 -37
-90 -20 -44 -37 -81 -38 -84 0 -3 -16 -34 -34 -70 -19 -36 -41 -78 -49 -95
-16 -30 -90 -152 -104 -170 -5 -5 -30 -39 -57 -75 -98 -129 -185 -206 -294
-258 -60 -29 -91 -39 -125 -41 -7 -1 -11 -5 -8 -9 3 -5 31 -10 63 -12 107 -7
457 -5 528 3 130 14 160 17 230 28 39 6 99 18 135 26 36 8 76 17 90 19 53 10
226 63 305 95 17 7 36 13 43 15 26 5 299 144 311 157 6 8 14 54 16 103 3 49 7
115 10 146 2 31 7 119 10 195 l6 138 -22 -25 c-144 -170 -324 -304 -511 -378
-35 -14 -132 -39 -181 -46 -42 -7 -42 -9 4 60 38 55 121 221 135 269 2 6 15
42 29 80 45 119 122 402 149 545 8 43 65 255 76 286 7 16 13 36 15 44 22 97
180 453 236 531 10 15 19 30 19 34 0 3 28 47 61 98 228 341 526 583 838 681
81 26 107 31 180 41 63 8 45 16 -32 14 -42 -1 -78 -3 -79 -4z"/>
<path d="M3550 5150 c-9 -6 -10 -10 -3 -10 6 0 15 5 18 10 8 12 4 12 -15 0z"/>
<path d="M3460 5118 c-25 -12 -65 -30 -90 -41 -60 -28 -182 -97 -198 -114 -7
-7 -17 -13 -21 -13 -4 0 -17 -8 -29 -17 -12 -10 -39 -31 -62 -47 -22 -17 -40
-33 -40 -38 0 -4 -5 -8 -12 -8 -19 0 -187 -177 -257 -269 -186 -249 -323 -582
-376 -916 -3 -16 -7 -43 -10 -60 -2 -16 -7 -52 -10 -80 -3 -27 -7 -68 -10 -91
-6 -44 -12 -164 -20 -399 -12 -310 -15 -382 -20 -465 -3 -47 -8 -116 -10 -155
-2 -38 -7 -89 -10 -112 -3 -24 -7 -62 -10 -85 -9 -79 -14 -113 -18 -133 -3
-11 -8 -42 -12 -70 -9 -67 -60 -260 -85 -327 -70 -182 -179 -331 -283 -385
-37 -19 -28 -28 15 -14 18 5 44 12 58 15 54 10 271 79 385 123 209 81 543 261
664 359 9 7 52 41 96 76 91 72 216 194 295 288 30 35 60 70 67 77 30 33 125
186 166 268 99 199 136 387 131 665 -2 102 -6 194 -7 205 -2 11 -7 45 -12 75
-4 30 -9 64 -11 75 -8 39 -26 140 -29 165 -2 14 -9 43 -14 65 -6 22 -27 112
-47 200 -20 88 -37 165 -38 170 -4 16 -25 117 -31 150 -10 49 -15 78 -20 110
-2 17 -6 40 -9 52 -15 71 -28 373 -16 373 3 0 5 16 6 35 0 20 -3 32 -7 28 -26
-29 -118 -312 -133 -413 -9 -53 -16 -92 -22 -119 -3 -13 -7 -49 -10 -80 -2
-31 -7 -76 -11 -101 -3 -25 -7 -252 -8 -505 -1 -253 -5 -472 -8 -488 -2 -15
-8 -55 -12 -90 -4 -34 -9 -65 -11 -68 -2 -3 -6 -21 -9 -40 -3 -19 -8 -47 -11
-63 -16 -92 -142 -418 -174 -446 -3 -3 -22 -31 -43 -63 -87 -134 -216 -253
-349 -325 -32 -17 -59 -28 -59 -24 -2 10 -1 13 20 99 51 200 57 534 16 882
-28 237 -24 616 10 813 3 18 7 46 10 62 53 333 196 669 384 901 72 89 117 133
206 206 77 64 76 63 180 121 58 32 41 36 -25 6z"/>
<path d="M6102 3926 c-11 -15 -32 -61 -78 -176 -21 -52 -46 -108 -56 -125 -26
-43 -23 -48 20 -40 72 14 128 18 212 18 122 0 206 -16 305 -57 37 -16 39 -18
20 -29 -11 -6 -22 -11 -25 -10 -3 0 -21 -10 -40 -22 -19 -12 -42 -24 -50 -27
-15 -6 -202 -144 -254 -188 -16 -14 -140 -135 -275 -270 -268 -266 -270 -267
-384 -354 -236 -177 -526 -318 -742 -361 -121 -24 -206 -33 -310 -33 -105 -1
-148 4 -240 23 -58 12 -142 40 -200 67 -16 7 -16 5 4 -12 13 -11 29 -20 36
-20 7 0 15 -4 17 -8 6 -15 231 -105 293 -117 11 -2 43 -9 70 -15 178 -38 366
-43 525 -15 14 3 39 7 55 10 17 3 41 7 55 10 14 3 36 8 50 11 55 11 240 79
328 121 98 46 268 144 337 195 115 85 150 111 265 203 69 55 130 104 136 110
6 5 26 21 44 35 18 14 38 30 44 36 22 21 266 203 358 267 98 68 252 159 328
194 174 79 241 97 375 97 61 0 122 -6 138 -12 15 -6 27 -10 27 -8 0 8 -174
122 -270 178 -82 48 -186 100 -320 161 -38 17 -93 37 -185 67 -33 11 -74 25
-92 30 -18 6 -40 13 -50 15 -176 36 -207 41 -294 51 -101 11 -169 11 -177 0z"/>
<path d="M3725 2400 c23 -82 145 -269 233 -359 224 -226 504 -345 893 -377 41
-3 232 -7 425 -9 340 -3 447 -7 529 -20 125 -19 168 -28 242 -52 73 -22 110
-41 214 -109 14 -10 34 -31 44 -48 33 -57 27 -8 -15 116 -71 209 -168 398
-282 553 -63 84 -240 265 -261 265 -8 0 -20 -7 -27 -15 -7 -8 -16 -12 -21 -9
-5 3 -9 1 -9 -3 0 -5 -45 -31 -100 -58 -55 -27 -100 -52 -100 -56 0 -4 15 -12
33 -20 76 -31 199 -140 258 -228 42 -64 39 -72 -18 -54 -74 23 -429 22 -555
-2 -90 -18 -275 -31 -398 -29 -198 3 -353 27 -515 81 -229 75 -440 229 -538
394 -21 35 -36 53 -32 39z"/>
<path d="M3957 2359 c7 -7 15 -10 18 -7 3 3 -2 9 -12 12 -14 6 -15 5 -6 -5z"/>
</g>
</svg>
