<svg width="169" height="65" viewBox="0 0 169 65" fill="none" xmlns="http://www.w3.org/2000/svg">
<path d="M48.2831 28.28H53.6831C53.7898 29.1867 54.2031 30.0133 54.9231 30.76C55.6698 31.48 56.6431 32.0533 57.8431 32.48C59.0431 32.88 60.3898 33.08 61.8831 33.08C63.2431 33.08 64.3631 32.9333 65.2431 32.64C66.1231 32.3467 66.7764 31.9333 67.2031 31.4C67.6298 30.8667 67.8431 30.2267 67.8431 29.48C67.8431 28.76 67.5764 28.2133 67.0431 27.84C66.5098 27.44 65.6698 27.12 64.5231 26.88C63.3764 26.6133 61.8698 26.3467 60.0031 26.08C58.5364 25.8667 57.1498 25.5733 55.8431 25.2C54.5364 24.8 53.3764 24.2933 52.3631 23.68C51.3764 23.0667 50.5898 22.32 50.0031 21.44C49.4431 20.5333 49.1631 19.4667 49.1631 18.24C49.1631 16.72 49.5898 15.3867 50.4431 14.24C51.3231 13.0933 52.6164 12.2 54.3231 11.56C56.0298 10.92 58.1231 10.6 60.6031 10.6C64.3364 10.6 67.2031 11.4 69.2031 13C71.2298 14.5733 72.2164 16.7467 72.1631 19.52H66.9631C66.8564 17.9467 66.1898 16.8133 64.9631 16.12C63.7631 15.4267 62.2431 15.08 60.4031 15.08C58.6964 15.08 57.2831 15.3333 56.1631 15.84C55.0698 16.3467 54.5231 17.2133 54.5231 18.44C54.5231 18.92 54.6564 19.3467 54.9231 19.72C55.1898 20.0667 55.6431 20.3733 56.2831 20.64C56.9231 20.9067 57.7898 21.16 58.8831 21.4C59.9764 21.64 61.3364 21.88 62.9631 22.12C64.4831 22.3333 65.8564 22.6267 67.0831 23C68.3364 23.3467 69.4031 23.8133 70.2831 24.4C71.1898 24.96 71.8831 25.68 72.3631 26.56C72.8431 27.44 73.0831 28.52 73.0831 29.8C73.0831 31.3733 72.6698 32.7467 71.8431 33.92C71.0431 35.0667 69.7898 35.96 68.0831 36.6C66.4031 37.24 64.2164 37.56 61.5231 37.56C59.6031 37.56 57.9098 37.36 56.4431 36.96C54.9764 36.5333 53.7098 35.9733 52.6431 35.28C51.5764 34.5867 50.7098 33.8267 50.0431 33C49.3764 32.1733 48.8964 31.3467 48.6031 30.52C48.3364 29.6933 48.2298 28.9467 48.2831 28.28ZM77.0965 17.12H82.2965V37H77.0965V17.12ZM91.5365 16.68C92.7632 16.68 93.8965 16.84 94.9366 17.16C95.9765 17.48 96.8832 17.9733 97.6565 18.64C98.4299 19.3067 99.0299 20.16 99.4565 21.2C99.8832 22.2133 100.097 23.4267 100.097 24.84V37H94.8965V25.76C94.8965 24.08 94.4832 22.8533 93.6565 22.08C92.8565 21.28 91.5365 20.88 89.6965 20.88C88.3099 20.88 87.0565 21.1467 85.9365 21.68C84.8165 22.2133 83.9099 22.8933 83.2165 23.72C82.5232 24.52 82.1232 25.36 82.0165 26.24L81.9765 24.2C82.1099 23.2667 82.4165 22.36 82.8965 21.48C83.3765 20.6 84.0165 19.8 84.8165 19.08C85.6432 18.3333 86.6165 17.7467 87.7365 17.32C88.8565 16.8933 90.1232 16.68 91.5365 16.68ZM108.857 16.68C110.083 16.68 111.217 16.84 112.257 17.16C113.297 17.48 114.203 17.9733 114.977 18.64C115.75 19.3067 116.35 20.16 116.777 21.2C117.23 22.2133 117.457 23.4267 117.457 24.84V37H112.257V25.76C112.257 24.08 111.843 22.8533 111.017 22.08C110.19 21.28 108.857 20.88 107.017 20.88C105.63 20.88 104.377 21.1467 103.257 21.68C102.137 22.2133 101.23 22.8933 100.537 23.72C99.8432 24.52 99.4565 25.36 99.3766 26.24L99.2965 24.08C99.4299 23.2 99.7499 22.32 100.257 21.44C100.763 20.56 101.43 19.76 102.257 19.04C103.083 18.32 104.043 17.7467 105.137 17.32C106.257 16.8933 107.497 16.68 108.857 16.68ZM128.135 8.4V12.96H122.095V8.4H128.135ZM122.495 17.12H127.695V37H122.495V17.12ZM133.278 9.12H138.478V37H133.278V9.12ZM161.857 30.4H166.897C166.684 31.76 166.111 32.9733 165.177 34.04C164.271 35.1067 163.031 35.9467 161.457 36.56C159.884 37.1733 157.964 37.48 155.697 37.48C153.164 37.48 150.924 37.08 148.977 36.28C147.031 35.4533 145.511 34.2667 144.417 32.72C143.324 31.1733 142.777 29.3067 142.777 27.12C142.777 24.9333 143.311 23.0667 144.377 21.52C145.444 19.9467 146.924 18.7467 148.817 17.92C150.737 17.0933 152.977 16.68 155.537 16.68C158.151 16.68 160.324 17.0933 162.057 17.92C163.791 18.7467 165.071 20 165.897 21.68C166.751 23.3333 167.111 25.4533 166.977 28.04H148.017C148.151 29.0533 148.524 29.9733 149.137 30.8C149.777 31.6267 150.631 32.28 151.697 32.76C152.791 33.24 154.084 33.48 155.577 33.48C157.231 33.48 158.604 33.2 159.697 32.64C160.817 32.0533 161.537 31.3067 161.857 30.4ZM155.297 20.64C153.377 20.64 151.817 21.0667 150.617 21.92C149.417 22.7467 148.644 23.7733 148.297 25H161.817C161.684 23.6667 161.044 22.6133 159.897 21.84C158.777 21.04 157.244 20.64 155.297 20.64Z" fill="white"/>
<path d="M2.96361 58V40.8545H12.8481C15.1448 40.8545 16.8849 41.2432 18.0686 42.0205C19.2699 42.7802 19.8706 43.9197 19.8706 45.439C19.8706 46.4107 19.6321 47.1792 19.1551 47.7445C18.6781 48.2922 17.9979 48.6985 17.1146 48.9635C16.2489 49.2285 15.2243 49.3963 14.0406 49.467L14.1466 49.2815C15.0123 49.2992 15.8249 49.361 16.5846 49.467C17.3619 49.573 18.0421 49.7673 18.6251 50.05C19.2081 50.3327 19.6674 50.7302 20.0031 51.2425C20.3388 51.7372 20.5066 52.3908 20.5066 53.2035C20.5066 54.2635 20.2239 55.1468 19.6586 55.8535C19.0933 56.5425 18.3071 57.0637 17.3001 57.417C16.2931 57.7703 15.1271 57.9647 13.8021 58H2.96361ZM6.48811 55.085H13.4311C14.5441 55.085 15.4009 54.9083 16.0016 54.555C16.6023 54.184 16.9026 53.601 16.9026 52.806C16.9026 52.223 16.7259 51.799 16.3726 51.534C16.0193 51.269 15.5511 51.11 14.9681 51.057C14.3851 50.9863 13.7579 50.951 13.0866 50.951H6.48811V55.085ZM6.48811 48.1155H12.7156C13.8286 48.1155 14.6854 47.9565 15.2861 47.6385C15.8868 47.3028 16.1871 46.7375 16.1871 45.9425C16.1871 45.1475 15.8868 44.591 15.2861 44.273C14.6854 43.9373 13.8904 43.7695 12.9011 43.7695H6.48811V48.1155ZM35.1949 53.6275H38.5339C38.3925 54.5285 38.0127 55.3323 37.3944 56.039C36.7937 56.7457 35.9722 57.3022 34.9299 57.7085C33.8875 58.1148 32.6155 58.318 31.1139 58.318C29.4355 58.318 27.9515 58.053 26.6619 57.523C25.3722 56.9753 24.3652 56.1892 23.6409 55.1645C22.9165 54.1398 22.5544 52.9032 22.5544 51.4545C22.5544 50.0058 22.9077 48.7692 23.6144 47.7445C24.321 46.7022 25.3015 45.9072 26.5559 45.3595C27.8279 44.8118 29.3119 44.538 31.0079 44.538C32.7392 44.538 34.179 44.8118 35.3274 45.3595C36.4757 45.9072 37.3237 46.7375 37.8714 47.8505C38.4367 48.9458 38.6752 50.3503 38.5869 52.064H26.0259C26.1142 52.7353 26.3615 53.3448 26.7679 53.8925C27.1919 54.4402 27.7572 54.873 28.4639 55.191C29.1882 55.509 30.045 55.668 31.0344 55.668C32.1297 55.668 33.0395 55.4825 33.7639 55.1115C34.5059 54.7228 34.9829 54.2282 35.1949 53.6275ZM30.8489 47.1615C29.5769 47.1615 28.5434 47.4442 27.7484 48.0095C26.9534 48.5572 26.441 49.2373 26.2114 50.05H35.1684C35.08 49.1667 34.656 48.4688 33.8964 47.9565C33.1544 47.4265 32.1385 47.1615 30.8489 47.1615ZM47.5633 58.2915C46.256 58.2915 45.0635 58.0088 43.9858 57.4435C42.9258 56.8605 42.0778 56.0567 41.4418 55.032C40.8235 53.9897 40.5143 52.7883 40.5143 51.428C40.5143 50.0323 40.8323 48.8222 41.4683 47.7975C42.1043 46.7728 42.9612 45.9778 44.0388 45.4125C45.1342 44.8295 46.3708 44.538 47.7488 44.538C49.2682 44.538 50.4872 44.8472 51.4058 45.4655C52.3422 46.0662 53.0223 46.8877 53.4463 47.93C53.8703 48.9723 54.0823 50.1383 54.0823 51.428C54.0823 52.2053 53.9587 53.0003 53.7113 53.813C53.464 54.608 53.0842 55.35 52.5718 56.039C52.0595 56.7103 51.3882 57.258 50.5578 57.682C49.7275 58.0883 48.7293 58.2915 47.5633 58.2915ZM48.6763 55.6415C49.7187 55.6415 50.6197 55.4648 51.3793 55.1115C52.139 54.7582 52.722 54.2635 53.1283 53.6275C53.5347 52.9915 53.7378 52.2583 53.7378 51.428C53.7378 50.527 53.5258 49.7673 53.1018 49.149C52.6955 48.513 52.1125 48.036 51.3528 47.718C50.6108 47.3823 49.7187 47.2145 48.6763 47.2145C47.21 47.2145 46.0705 47.6032 45.2578 48.3805C44.4452 49.1402 44.0388 50.156 44.0388 51.428C44.0388 52.276 44.2332 53.018 44.6218 53.654C45.0105 54.2723 45.5493 54.7582 46.2383 55.1115C46.945 55.4648 47.7577 55.6415 48.6763 55.6415ZM53.7378 44.8295H57.1828V58H53.9763C53.9763 58 53.9498 57.8322 53.8968 57.4965C53.8615 57.1432 53.8262 56.7015 53.7908 56.1715C53.7555 55.6415 53.7378 55.1203 53.7378 54.608V44.8295ZM75.5382 58H72.0932V44.8295H75.5382V58ZM72.2787 51.6665L72.3052 52.5675C72.2699 52.8148 72.1815 53.177 72.0402 53.654C71.8989 54.1133 71.678 54.608 71.3777 55.138C71.095 55.668 70.724 56.1803 70.2647 56.675C69.8054 57.152 69.24 57.5495 68.5687 57.8675C67.8974 58.1678 67.1024 58.318 66.1837 58.318C65.4594 58.318 64.7439 58.2297 64.0372 58.053C63.3482 57.8763 62.721 57.5848 62.1557 57.1785C61.5904 56.7545 61.1399 56.1892 60.8042 55.4825C60.4685 54.7758 60.3007 53.8837 60.3007 52.806V44.8295H63.7457V52.223C63.7457 53.071 63.8782 53.7423 64.1432 54.237C64.4259 54.714 64.8322 55.0497 65.3622 55.244C65.8922 55.4383 66.5194 55.5355 67.2437 55.5355C68.1977 55.5355 69.0192 55.3323 69.7082 54.926C70.3972 54.502 70.9537 53.9897 71.3777 53.389C71.8194 52.7883 72.1197 52.2142 72.2787 51.6665ZM77.7472 44.8295H87.9762V47.506H77.7472V44.8295ZM81.1392 41.2255H84.5842V58H81.1392V41.2255ZM88.9725 44.8295H92.6295L98.327 57.47L95.359 58L88.9725 44.8295ZM105.084 44.8295L95.9685 63.3H92.391L96.2865 56.039L101.401 44.8295H105.084ZM112.793 52.223H116.37C116.441 52.8237 116.715 53.3713 117.192 53.866C117.687 54.343 118.331 54.7228 119.126 55.0055C119.921 55.2705 120.814 55.403 121.803 55.403C122.704 55.403 123.446 55.3058 124.029 55.1115C124.612 54.9172 125.045 54.6433 125.327 54.29C125.61 53.9367 125.751 53.5127 125.751 53.018C125.751 52.541 125.575 52.1788 125.221 51.9315C124.868 51.6665 124.312 51.4545 123.552 51.2955C122.792 51.1188 121.794 50.9422 120.557 50.7655C119.586 50.6242 118.667 50.4298 117.801 50.1825C116.936 49.9175 116.167 49.5818 115.496 49.1755C114.842 48.7692 114.321 48.2745 113.932 47.6915C113.561 47.0908 113.376 46.3842 113.376 45.5715C113.376 44.5645 113.659 43.6812 114.224 42.9215C114.807 42.1618 115.664 41.57 116.794 41.146C117.925 40.722 119.312 40.51 120.955 40.51C123.428 40.51 125.327 41.04 126.652 42.1C127.995 43.1423 128.649 44.5822 128.613 46.4195H125.168C125.098 45.3772 124.656 44.6263 123.843 44.167C123.048 43.7077 122.041 43.478 120.822 43.478C119.692 43.478 118.755 43.6458 118.013 43.9815C117.289 44.3172 116.927 44.8913 116.927 45.704C116.927 46.022 117.015 46.3047 117.192 46.552C117.369 46.7817 117.669 46.9848 118.093 47.1615C118.517 47.3382 119.091 47.506 119.815 47.665C120.54 47.824 121.441 47.983 122.518 48.142C123.525 48.2833 124.435 48.4777 125.248 48.725C126.078 48.9547 126.785 49.2638 127.368 49.6525C127.969 50.0235 128.428 50.5005 128.746 51.0835C129.064 51.6665 129.223 52.382 129.223 53.23C129.223 54.2723 128.949 55.1822 128.401 55.9595C127.871 56.7192 127.041 57.311 125.91 57.735C124.797 58.159 123.349 58.371 121.564 58.371C120.292 58.371 119.171 58.2385 118.199 57.9735C117.227 57.6908 116.388 57.3198 115.681 56.8605C114.975 56.4012 114.401 55.8977 113.959 55.35C113.517 54.8023 113.199 54.2547 113.005 53.707C112.828 53.1593 112.758 52.6647 112.793 52.223ZM141.475 58.318C140.309 58.318 139.311 58.1148 138.48 57.7085C137.668 57.2845 137.005 56.7368 136.493 56.0655C135.98 55.3765 135.601 54.6257 135.353 53.813C135.106 53.0003 134.982 52.2053 134.982 51.428C134.982 50.4563 135.097 49.5553 135.327 48.725C135.574 47.8947 135.954 47.1703 136.466 46.552C136.979 45.916 137.641 45.4213 138.454 45.068C139.284 44.7147 140.291 44.538 141.475 44.538C142.8 44.538 143.992 44.8295 145.052 45.4125C146.112 45.9955 146.951 46.8082 147.57 47.8505C148.206 48.8752 148.524 50.0677 148.524 51.428C148.524 52.8237 148.206 54.0427 147.57 55.085C146.934 56.1097 146.086 56.9047 145.026 57.47C143.966 58.0353 142.782 58.318 141.475 58.318ZM140.362 55.6415C141.298 55.6415 142.111 55.4648 142.8 55.1115C143.506 54.7582 144.045 54.2723 144.416 53.654C144.805 53.018 144.999 52.276 144.999 51.428C144.999 50.156 144.593 49.1313 143.78 48.354C142.985 47.5767 141.846 47.188 140.362 47.188C139.425 47.188 138.569 47.3558 137.791 47.6915C137.032 48.0272 136.431 48.513 135.989 49.149C135.548 49.7673 135.327 50.527 135.327 51.428C135.327 52.276 135.53 53.018 135.936 53.654C136.343 54.2723 136.926 54.7582 137.685 55.1115C138.445 55.4648 139.337 55.6415 140.362 55.6415ZM131.882 44.8295H135.168L135.327 48.3275V63.3H131.882V44.8295ZM157.471 58.2915C156.164 58.2915 154.971 58.0088 153.894 57.4435C152.834 56.8605 151.986 56.0567 151.35 55.032C150.731 53.9897 150.422 52.7883 150.422 51.428C150.422 50.0323 150.74 48.8222 151.376 47.7975C152.012 46.7728 152.869 45.9778 153.947 45.4125C155.042 44.8295 156.279 44.538 157.657 44.538C159.176 44.538 160.395 44.8472 161.314 45.4655C162.25 46.0662 162.93 46.8877 163.354 47.93C163.778 48.9723 163.99 50.1383 163.99 51.428C163.99 52.2053 163.866 53.0003 163.619 53.813C163.372 54.608 162.992 55.35 162.48 56.039C161.967 56.7103 161.296 57.258 160.466 57.682C159.635 58.0883 158.637 58.2915 157.471 58.2915ZM158.584 55.6415C159.626 55.6415 160.527 55.4648 161.287 55.1115C162.047 54.7582 162.63 54.2635 163.036 53.6275C163.442 52.9915 163.646 52.2583 163.646 51.428C163.646 50.527 163.434 49.7673 163.01 49.149C162.603 48.513 162.02 48.036 161.261 47.718C160.519 47.3823 159.626 47.2145 158.584 47.2145C157.118 47.2145 155.978 47.6032 155.166 48.3805C154.353 49.1402 153.947 50.156 153.947 51.428C153.947 52.276 154.141 53.018 154.53 53.654C154.918 54.2723 155.457 54.7582 156.146 55.1115C156.853 55.4648 157.665 55.6415 158.584 55.6415ZM163.646 44.8295H167.091V58H163.884C163.884 58 163.858 57.8322 163.805 57.4965C163.769 57.1432 163.734 56.7015 163.699 56.1715C163.663 55.6415 163.646 55.1203 163.646 54.608V44.8295Z" fill="white"/>
<path d="M10.1413 16.929C7.56654 19.7139 6.04272 20.1343 6.04272 20.1343C6.04272 20.1343 7.46145 21.0275 9.826 20.4495C9.56327 20.9224 9.35309 21.4479 9.1429 21.9733C9.03781 22.2361 8.93272 22.4988 8.82763 22.709C4.93927 22.6564 1.68145 20.6597 0 19.3986C2.83745 20.6597 6.936 16.7714 10.1938 14.1966C17.2874 8.73189 22.4894 12.9881 22.4894 12.9881C19.8622 11.3592 14.8178 11.7795 10.1413 16.929Z" fill="white"/>
<path d="M14.6076 10.0458C11.7176 10.4661 10.6142 9.99323 10.6142 9.99323C10.6142 9.99323 11.0345 11.2018 12.716 11.9899C12.3482 12.1476 11.9804 12.3578 11.56 12.5679C11.4024 12.673 11.1922 12.7781 11.0345 12.8832C8.72254 10.9916 7.72418 8.25922 7.35636 6.68286C8.45982 8.78468 12.7685 8.41686 15.9213 8.46941C22.7522 8.5745 23.8556 13.6189 23.8556 13.6189C23.12 11.4119 19.8622 9.25759 14.6076 10.0458Z" fill="#E21A6B"/>
<path d="M9.72096 22.1842C7.98696 26.6505 6.25296 32.956 2.67987 33.3764C5.14951 33.6391 9.66841 33.6391 13.6093 31.2746C13.7144 30.1186 13.767 28.8574 13.8195 27.6489C11.56 30.4863 9.09041 30.4864 9.09041 30.4864C9.09041 30.4864 10.3515 29.1727 11.2448 24.9165C12.8737 17.0347 17.6028 13.6192 21.1759 13.7243C21.2284 13.7243 13.5042 12.5683 9.72096 22.1842Z" fill="#E21A6B"/>
<path d="M14.6077 25.2842C14.345 30.0659 14.6603 36.5815 11.4025 38.1053C14.0823 37.5273 18.969 35.8984 21.9641 31.6422C25.7474 26.23 21.2285 20.0297 22.0692 15.5108C21.3335 16.9295 20.6505 19.3991 20.8606 23.6028C21.2285 31.905 16.5519 33.3762 16.5519 33.3762C16.5519 33.3762 17.3401 31.7473 16.8672 27.386C15.9214 19.3991 19.3894 14.67 22.8048 13.6191C22.8574 13.6717 15.1857 14.9853 14.6077 25.2842Z" fill="white"/>
<path d="M36.8344 27.1753C39.4091 24.3904 40.9329 23.97 40.9329 23.97C40.9329 23.97 39.5142 23.0767 37.1497 23.6547C37.4124 23.1818 37.6226 22.6564 37.8328 22.1309C37.9378 21.8682 38.0429 21.6054 38.148 21.3953C41.9838 21.4478 45.1891 23.392 46.9231 24.6531C44.0857 23.4971 40.0397 27.3329 36.7818 29.8551C29.6882 35.3198 24.4862 31.0636 24.4862 31.0636C27.1135 32.7451 32.1578 32.3247 36.8344 27.1753Z" fill="white"/>
<path d="M32.368 34.0592C35.258 33.6388 36.3614 34.1117 36.3614 34.1117C36.3614 34.1117 35.9411 32.9032 34.2596 32.115C34.6274 31.9574 34.9953 31.7472 35.4156 31.537C35.5733 31.4319 35.7834 31.3268 35.9411 31.2217C38.2531 33.1134 39.2514 35.8457 39.6193 37.4221C38.5158 35.3203 34.2071 35.6881 31.0544 35.6355C24.2234 35.5304 23.12 30.4861 23.12 30.4861C23.8556 32.693 27.0609 34.8474 32.368 34.0592Z" fill="#E21A6B"/>
<path d="M37.2548 21.9214C38.9888 17.455 40.7228 11.1496 44.2958 10.7292C41.8262 10.4665 37.3073 10.4665 33.3664 12.831C33.2613 13.987 33.2088 15.2481 33.1562 16.4567C35.4157 13.6192 37.8853 13.6192 37.8853 13.6192C37.8853 13.6192 36.6242 14.9328 35.7309 19.189C34.102 27.0708 29.3729 30.4863 25.7999 30.3812C25.7473 30.3812 33.4715 31.5372 37.2548 21.9214Z" fill="#E21A6B"/>
<path d="M32.5342 18.8211C32.7969 14.0395 32.4816 7.52382 35.7395 6C33.0596 6.578 28.1729 8.20691 25.1778 12.4631C21.3946 17.8753 25.9135 24.0756 25.0727 28.5945C25.8084 27.1758 26.4915 24.7062 26.2813 20.5025C25.9135 12.2004 30.59 10.7291 30.59 10.7291C30.59 10.7291 29.8018 12.358 30.2747 16.7193C31.2206 24.7062 27.7526 29.4353 24.3371 30.4862C24.2846 30.4336 31.9562 29.12 32.5342 18.8211Z" fill="white"/>
</svg>
