<svg width="169" height="66" viewBox="0 0 169 66" fill="none" xmlns="http://www.w3.org/2000/svg">
<path d="M1.36 28.28H6.76C6.86667 29.1867 7.28 30.0133 8 30.76C8.74667 31.48 9.72 32.0533 10.92 32.48C12.12 32.88 13.4667 33.08 14.96 33.08C16.32 33.08 17.44 32.9333 18.32 32.64C19.2 32.3467 19.8533 31.9333 20.28 31.4C20.7067 30.8667 20.92 30.2267 20.92 29.48C20.92 28.76 20.6533 28.2133 20.12 27.84C19.5867 27.44 18.7467 27.12 17.6 26.88C16.4533 26.6133 14.9467 26.3467 13.08 26.08C11.6133 25.8667 10.2267 25.5733 8.92 25.2C7.61333 24.8 6.45333 24.2933 5.44 23.68C4.45333 23.0667 3.66667 22.32 3.08 21.44C2.52 20.5333 2.24 19.4667 2.24 18.24C2.24 16.72 2.66667 15.3867 3.52 14.24C4.4 13.0933 5.69333 12.2 7.4 11.56C9.10667 10.92 11.2 10.6 13.68 10.6C17.4133 10.6 20.28 11.4 22.28 13C24.3067 14.5733 25.2933 16.7467 25.24 19.52H20.04C19.9333 17.9467 19.2667 16.8133 18.04 16.12C16.84 15.4267 15.32 15.08 13.48 15.08C11.7733 15.08 10.36 15.3333 9.24 15.84C8.14667 16.3467 7.6 17.2133 7.6 18.44C7.6 18.92 7.73333 19.3467 8 19.72C8.26667 20.0667 8.72 20.3733 9.36 20.64C10 20.9067 10.8667 21.16 11.96 21.4C13.0533 21.64 14.4133 21.88 16.04 22.12C17.56 22.3333 18.9333 22.6267 20.16 23C21.4133 23.3467 22.48 23.8133 23.36 24.4C24.2667 24.96 24.96 25.68 25.44 26.56C25.92 27.44 26.16 28.52 26.16 29.8C26.16 31.3733 25.7467 32.7467 24.92 33.92C24.12 35.0667 22.8667 35.96 21.16 36.6C19.48 37.24 17.2933 37.56 14.6 37.56C12.68 37.56 10.9867 37.36 9.52 36.96C8.05333 36.5333 6.78667 35.9733 5.72 35.28C4.65333 34.5867 3.78667 33.8267 3.12 33C2.45333 32.1733 1.97333 31.3467 1.68 30.52C1.41333 29.6933 1.30667 28.9467 1.36 28.28ZM30.1734 17.12H35.3734V37H30.1734V17.12ZM44.6134 16.68C45.8401 16.68 46.9734 16.84 48.0134 17.16C49.0534 17.48 49.9601 17.9733 50.7334 18.64C51.5068 19.3067 52.1068 20.16 52.5334 21.2C52.9601 22.2133 53.1734 23.4267 53.1734 24.84V37H47.9734V25.76C47.9734 24.08 47.5601 22.8533 46.7334 22.08C45.9334 21.28 44.6134 20.88 42.7734 20.88C41.3868 20.88 40.1334 21.1467 39.0134 21.68C37.8934 22.2133 36.9868 22.8933 36.2934 23.72C35.6001 24.52 35.2001 25.36 35.0934 26.24L35.0534 24.2C35.1868 23.2667 35.4934 22.36 35.9734 21.48C36.4534 20.6 37.0934 19.8 37.8934 19.08C38.7201 18.3333 39.6934 17.7467 40.8134 17.32C41.9334 16.8933 43.2001 16.68 44.6134 16.68ZM61.9334 16.68C63.1601 16.68 64.2934 16.84 65.3334 17.16C66.3734 17.48 67.2801 17.9733 68.0534 18.64C68.8268 19.3067 69.4268 20.16 69.8534 21.2C70.3068 22.2133 70.5334 23.4267 70.5334 24.84V37H65.3334V25.76C65.3334 24.08 64.9201 22.8533 64.0934 22.08C63.2668 21.28 61.9334 20.88 60.0934 20.88C58.7068 20.88 57.4534 21.1467 56.3334 21.68C55.2134 22.2133 54.3068 22.8933 53.6134 23.72C52.9201 24.52 52.5334 25.36 52.4534 26.24L52.3734 24.08C52.5068 23.2 52.8268 22.32 53.3334 21.44C53.8401 20.56 54.5068 19.76 55.3334 19.04C56.1601 18.32 57.1201 17.7467 58.2134 17.32C59.3334 16.8933 60.5734 16.68 61.9334 16.68ZM81.2116 8.4V12.96H75.1716V8.4H81.2116ZM75.5716 17.12H80.7716V37H75.5716V17.12ZM86.3547 9.12H91.5547V37H86.3547V9.12ZM114.934 30.4H119.974C119.761 31.76 119.187 32.9733 118.254 34.04C117.347 35.1067 116.107 35.9467 114.534 36.56C112.961 37.1733 111.041 37.48 108.774 37.48C106.241 37.48 104.001 37.08 102.054 36.28C100.107 35.4533 98.5874 34.2667 97.4941 32.72C96.4007 31.1733 95.8541 29.3067 95.8541 27.12C95.8541 24.9333 96.3874 23.0667 97.4541 21.52C98.5207 19.9467 100.001 18.7467 101.894 17.92C103.814 17.0933 106.054 16.68 108.614 16.68C111.227 16.68 113.401 17.0933 115.134 17.92C116.867 18.7467 118.147 20 118.974 21.68C119.827 23.3333 120.187 25.4533 120.054 28.04H101.094C101.227 29.0533 101.601 29.9733 102.214 30.8C102.854 31.6267 103.707 32.28 104.774 32.76C105.867 33.24 107.161 33.48 108.654 33.48C110.307 33.48 111.681 33.2 112.774 32.64C113.894 32.0533 114.614 31.3067 114.934 30.4ZM108.374 20.64C106.454 20.64 104.894 21.0667 103.694 21.92C102.494 22.7467 101.721 23.7733 101.374 25H114.894C114.761 23.6667 114.121 22.6133 112.974 21.84C111.854 21.04 110.321 20.64 108.374 20.64Z" fill="white"/>
<path d="M2.96361 59V41.8545H12.8481C15.1448 41.8545 16.8849 42.2432 18.0686 43.0205C19.2699 43.7802 19.8706 44.9197 19.8706 46.439C19.8706 47.4107 19.6321 48.1792 19.1551 48.7445C18.6781 49.2922 17.9979 49.6985 17.1146 49.9635C16.2489 50.2285 15.2243 50.3963 14.0406 50.467L14.1466 50.2815C15.0123 50.2992 15.8249 50.361 16.5846 50.467C17.3619 50.573 18.0421 50.7673 18.6251 51.05C19.2081 51.3327 19.6674 51.7302 20.0031 52.2425C20.3388 52.7372 20.5066 53.3908 20.5066 54.2035C20.5066 55.2635 20.2239 56.1468 19.6586 56.8535C19.0933 57.5425 18.3071 58.0637 17.3001 58.417C16.2931 58.7703 15.1271 58.9647 13.8021 59H2.96361ZM6.48811 56.085H13.4311C14.5441 56.085 15.4009 55.9083 16.0016 55.555C16.6023 55.184 16.9026 54.601 16.9026 53.806C16.9026 53.223 16.7259 52.799 16.3726 52.534C16.0193 52.269 15.5511 52.11 14.9681 52.057C14.3851 51.9863 13.7579 51.951 13.0866 51.951H6.48811V56.085ZM6.48811 49.1155H12.7156C13.8286 49.1155 14.6854 48.9565 15.2861 48.6385C15.8868 48.3028 16.1871 47.7375 16.1871 46.9425C16.1871 46.1475 15.8868 45.591 15.2861 45.273C14.6854 44.9373 13.8904 44.7695 12.9011 44.7695H6.48811V49.1155ZM35.1949 54.6275H38.5339C38.3925 55.5285 38.0127 56.3323 37.3944 57.039C36.7937 57.7457 35.9722 58.3022 34.9299 58.7085C33.8875 59.1148 32.6155 59.318 31.1139 59.318C29.4355 59.318 27.9515 59.053 26.6619 58.523C25.3722 57.9753 24.3652 57.1892 23.6409 56.1645C22.9165 55.1398 22.5544 53.9032 22.5544 52.4545C22.5544 51.0058 22.9077 49.7692 23.6144 48.7445C24.321 47.7022 25.3015 46.9072 26.5559 46.3595C27.8279 45.8118 29.3119 45.538 31.0079 45.538C32.7392 45.538 34.179 45.8118 35.3274 46.3595C36.4757 46.9072 37.3237 47.7375 37.8714 48.8505C38.4367 49.9458 38.6752 51.3503 38.5869 53.064H26.0259C26.1142 53.7353 26.3615 54.3448 26.7679 54.8925C27.1919 55.4402 27.7572 55.873 28.4639 56.191C29.1882 56.509 30.045 56.668 31.0344 56.668C32.1297 56.668 33.0395 56.4825 33.7639 56.1115C34.5059 55.7228 34.9829 55.2282 35.1949 54.6275ZM30.8489 48.1615C29.5769 48.1615 28.5434 48.4442 27.7484 49.0095C26.9534 49.5572 26.441 50.2373 26.2114 51.05H35.1684C35.08 50.1667 34.656 49.4688 33.8964 48.9565C33.1544 48.4265 32.1385 48.1615 30.8489 48.1615ZM47.5633 59.2915C46.256 59.2915 45.0635 59.0088 43.9858 58.4435C42.9258 57.8605 42.0778 57.0567 41.4418 56.032C40.8235 54.9897 40.5143 53.7883 40.5143 52.428C40.5143 51.0323 40.8323 49.8222 41.4683 48.7975C42.1043 47.7728 42.9612 46.9778 44.0388 46.4125C45.1342 45.8295 46.3708 45.538 47.7488 45.538C49.2682 45.538 50.4872 45.8472 51.4058 46.4655C52.3422 47.0662 53.0223 47.8877 53.4463 48.93C53.8703 49.9723 54.0823 51.1383 54.0823 52.428C54.0823 53.2053 53.9587 54.0003 53.7113 54.813C53.464 55.608 53.0842 56.35 52.5718 57.039C52.0595 57.7103 51.3882 58.258 50.5578 58.682C49.7275 59.0883 48.7293 59.2915 47.5633 59.2915ZM48.6763 56.6415C49.7187 56.6415 50.6197 56.4648 51.3793 56.1115C52.139 55.7582 52.722 55.2635 53.1283 54.6275C53.5347 53.9915 53.7378 53.2583 53.7378 52.428C53.7378 51.527 53.5258 50.7673 53.1018 50.149C52.6955 49.513 52.1125 49.036 51.3528 48.718C50.6108 48.3823 49.7187 48.2145 48.6763 48.2145C47.21 48.2145 46.0705 48.6032 45.2578 49.3805C44.4452 50.1402 44.0388 51.156 44.0388 52.428C44.0388 53.276 44.2332 54.018 44.6218 54.654C45.0105 55.2723 45.5493 55.7582 46.2383 56.1115C46.945 56.4648 47.7577 56.6415 48.6763 56.6415ZM53.7378 45.8295H57.1828V59H53.9763C53.9763 59 53.9498 58.8322 53.8968 58.4965C53.8615 58.1432 53.8262 57.7015 53.7908 57.1715C53.7555 56.6415 53.7378 56.1203 53.7378 55.608V45.8295ZM75.5382 59H72.0932V45.8295H75.5382V59ZM72.2787 52.6665L72.3052 53.5675C72.2699 53.8148 72.1815 54.177 72.0402 54.654C71.8989 55.1133 71.678 55.608 71.3777 56.138C71.095 56.668 70.724 57.1803 70.2647 57.675C69.8054 58.152 69.24 58.5495 68.5687 58.8675C67.8974 59.1678 67.1024 59.318 66.1837 59.318C65.4594 59.318 64.7439 59.2297 64.0372 59.053C63.3482 58.8763 62.721 58.5848 62.1557 58.1785C61.5904 57.7545 61.1399 57.1892 60.8042 56.4825C60.4685 55.7758 60.3007 54.8837 60.3007 53.806V45.8295H63.7457V53.223C63.7457 54.071 63.8782 54.7423 64.1432 55.237C64.4259 55.714 64.8322 56.0497 65.3622 56.244C65.8922 56.4383 66.5194 56.5355 67.2437 56.5355C68.1977 56.5355 69.0192 56.3323 69.7082 55.926C70.3972 55.502 70.9537 54.9897 71.3777 54.389C71.8194 53.7883 72.1197 53.2142 72.2787 52.6665ZM77.7472 45.8295H87.9762V48.506H77.7472V45.8295ZM81.1392 42.2255H84.5842V59H81.1392V42.2255ZM88.9725 45.8295H92.6295L98.327 58.47L95.359 59L88.9725 45.8295ZM105.084 45.8295L95.9685 64.3H92.391L96.2865 57.039L101.401 45.8295H105.084ZM112.793 53.223H116.37C116.441 53.8237 116.715 54.3713 117.192 54.866C117.687 55.343 118.331 55.7228 119.126 56.0055C119.921 56.2705 120.814 56.403 121.803 56.403C122.704 56.403 123.446 56.3058 124.029 56.1115C124.612 55.9172 125.045 55.6433 125.327 55.29C125.61 54.9367 125.751 54.5127 125.751 54.018C125.751 53.541 125.575 53.1788 125.221 52.9315C124.868 52.6665 124.312 52.4545 123.552 52.2955C122.792 52.1188 121.794 51.9422 120.557 51.7655C119.586 51.6242 118.667 51.4298 117.801 51.1825C116.936 50.9175 116.167 50.5818 115.496 50.1755C114.842 49.7692 114.321 49.2745 113.932 48.6915C113.561 48.0908 113.376 47.3842 113.376 46.5715C113.376 45.5645 113.659 44.6812 114.224 43.9215C114.807 43.1618 115.664 42.57 116.794 42.146C117.925 41.722 119.312 41.51 120.955 41.51C123.428 41.51 125.327 42.04 126.652 43.1C127.995 44.1423 128.649 45.5822 128.613 47.4195H125.168C125.098 46.3772 124.656 45.6263 123.843 45.167C123.048 44.7077 122.041 44.478 120.822 44.478C119.692 44.478 118.755 44.6458 118.013 44.9815C117.289 45.3172 116.927 45.8913 116.927 46.704C116.927 47.022 117.015 47.3047 117.192 47.552C117.369 47.7817 117.669 47.9848 118.093 48.1615C118.517 48.3382 119.091 48.506 119.815 48.665C120.54 48.824 121.441 48.983 122.518 49.142C123.525 49.2833 124.435 49.4777 125.248 49.725C126.078 49.9547 126.785 50.2638 127.368 50.6525C127.969 51.0235 128.428 51.5005 128.746 52.0835C129.064 52.6665 129.223 53.382 129.223 54.23C129.223 55.2723 128.949 56.1822 128.401 56.9595C127.871 57.7192 127.041 58.311 125.91 58.735C124.797 59.159 123.349 59.371 121.564 59.371C120.292 59.371 119.171 59.2385 118.199 58.9735C117.227 58.6908 116.388 58.3198 115.681 57.8605C114.975 57.4012 114.401 56.8977 113.959 56.35C113.517 55.8023 113.199 55.2547 113.005 54.707C112.828 54.1593 112.758 53.6647 112.793 53.223ZM141.475 59.318C140.309 59.318 139.311 59.1148 138.48 58.7085C137.668 58.2845 137.005 57.7368 136.493 57.0655C135.98 56.3765 135.601 55.6257 135.353 54.813C135.106 54.0003 134.982 53.2053 134.982 52.428C134.982 51.4563 135.097 50.5553 135.327 49.725C135.574 48.8947 135.954 48.1703 136.466 47.552C136.979 46.916 137.641 46.4213 138.454 46.068C139.284 45.7147 140.291 45.538 141.475 45.538C142.8 45.538 143.992 45.8295 145.052 46.4125C146.112 46.9955 146.951 47.8082 147.57 48.8505C148.206 49.8752 148.524 51.0677 148.524 52.428C148.524 53.8237 148.206 55.0427 147.57 56.085C146.934 57.1097 146.086 57.9047 145.026 58.47C143.966 59.0353 142.782 59.318 141.475 59.318ZM140.362 56.6415C141.298 56.6415 142.111 56.4648 142.8 56.1115C143.506 55.7582 144.045 55.2723 144.416 54.654C144.805 54.018 144.999 53.276 144.999 52.428C144.999 51.156 144.593 50.1313 143.78 49.354C142.985 48.5767 141.846 48.188 140.362 48.188C139.425 48.188 138.569 48.3558 137.791 48.6915C137.032 49.0272 136.431 49.513 135.989 50.149C135.548 50.7673 135.327 51.527 135.327 52.428C135.327 53.276 135.53 54.018 135.936 54.654C136.343 55.2723 136.926 55.7582 137.685 56.1115C138.445 56.4648 139.337 56.6415 140.362 56.6415ZM131.882 45.8295H135.168L135.327 49.3275V64.3H131.882V45.8295ZM157.471 59.2915C156.164 59.2915 154.971 59.0088 153.894 58.4435C152.834 57.8605 151.986 57.0567 151.35 56.032C150.731 54.9897 150.422 53.7883 150.422 52.428C150.422 51.0323 150.74 49.8222 151.376 48.7975C152.012 47.7728 152.869 46.9778 153.947 46.4125C155.042 45.8295 156.279 45.538 157.657 45.538C159.176 45.538 160.395 45.8472 161.314 46.4655C162.25 47.0662 162.93 47.8877 163.354 48.93C163.778 49.9723 163.99 51.1383 163.99 52.428C163.99 53.2053 163.866 54.0003 163.619 54.813C163.372 55.608 162.992 56.35 162.48 57.039C161.967 57.7103 161.296 58.258 160.466 58.682C159.635 59.0883 158.637 59.2915 157.471 59.2915ZM158.584 56.6415C159.626 56.6415 160.527 56.4648 161.287 56.1115C162.047 55.7582 162.63 55.2635 163.036 54.6275C163.442 53.9915 163.646 53.2583 163.646 52.428C163.646 51.527 163.434 50.7673 163.01 50.149C162.603 49.513 162.02 49.036 161.261 48.718C160.519 48.3823 159.626 48.2145 158.584 48.2145C157.118 48.2145 155.978 48.6032 155.166 49.3805C154.353 50.1402 153.947 51.156 153.947 52.428C153.947 53.276 154.141 54.018 154.53 54.654C154.918 55.2723 155.457 55.7582 156.146 56.1115C156.853 56.4648 157.665 56.6415 158.584 56.6415ZM163.646 45.8295H167.091V59H163.884C163.884 59 163.858 58.8322 163.805 58.4965C163.769 58.1432 163.734 57.7015 163.699 57.1715C163.663 56.6415 163.646 56.1203 163.646 55.608V45.8295Z" fill="white"/>
<path d="M154.368 36.0592C157.258 35.6388 158.361 36.1117 158.361 36.1117C158.361 36.1117 157.941 34.9032 156.26 34.115C156.627 33.9574 156.995 33.7472 157.416 33.537C157.573 33.4319 157.783 33.3268 157.941 33.2217C160.253 35.1134 161.251 37.8457 161.619 39.4221C160.516 37.3203 156.207 37.6881 153.054 37.6355C146.223 37.5304 145.12 32.4861 145.12 32.4861C145.856 34.693 149.061 36.8474 154.368 36.0592Z" fill="white"/>
<path d="M132.141 18.929C129.567 21.7139 128.043 22.1343 128.043 22.1343C128.043 22.1343 129.461 23.0275 131.826 22.4495C131.563 22.9224 131.353 23.4479 131.143 23.9733C131.038 24.2361 130.933 24.4988 130.828 24.709C126.939 24.6564 123.681 22.6597 122 21.3986C124.837 22.6597 128.936 18.7714 132.194 16.1966C139.287 10.7319 144.489 14.9881 144.489 14.9881C141.862 13.3592 136.818 13.7795 132.141 18.929Z" fill="white"/>
<path d="M136.608 12.0458C133.718 12.4661 132.614 11.9932 132.614 11.9932C132.614 11.9932 133.035 13.2018 134.716 13.9899C134.348 14.1476 133.98 14.3578 133.56 14.5679C133.402 14.673 133.192 14.7781 133.035 14.8832C130.723 12.9916 129.724 10.2592 129.356 8.68286C130.46 10.7847 134.769 10.4169 137.921 10.4694C144.752 10.5745 145.856 15.6189 145.856 15.6189C145.12 13.4119 141.862 11.2576 136.608 12.0458Z" fill="white"/>
<path d="M131.721 24.1842C129.987 28.6505 128.253 34.956 124.68 35.3764C127.15 35.6391 131.668 35.6391 135.609 33.2746C135.714 32.1186 135.767 30.8574 135.82 29.6489C133.56 32.4863 131.09 32.4864 131.09 32.4864C131.09 32.4864 132.352 31.1727 133.245 26.9165C134.874 19.0347 139.603 15.6192 143.176 15.7243C143.228 15.7243 135.504 14.5683 131.721 24.1842Z" fill="white"/>
<path d="M136.608 27.2842C136.345 32.0659 136.66 38.5815 133.402 40.1053C136.082 39.5273 140.969 37.8984 143.964 33.6422C147.747 28.23 143.228 22.0297 144.069 17.5108C143.334 18.9295 142.65 21.3991 142.861 25.6028C143.228 33.905 138.552 35.3762 138.552 35.3762C138.552 35.3762 139.34 33.7473 138.867 29.386C137.921 21.3991 141.389 16.67 144.805 15.6191C144.857 15.6717 137.186 16.9853 136.608 27.2842Z" fill="white"/>
<path d="M158.834 29.1753C161.409 26.3904 162.933 25.97 162.933 25.97C162.933 25.97 161.514 25.0767 159.15 25.6547C159.412 25.1818 159.623 24.6564 159.833 24.1309C159.938 23.8682 160.043 23.6054 160.148 23.3953C163.984 23.4478 167.189 25.392 168.923 26.6531C166.086 25.4971 162.04 29.3329 158.782 31.8551C151.688 37.3198 146.486 33.0636 146.486 33.0636C149.113 34.7451 154.158 34.3247 158.834 29.1753Z" fill="white"/>
<path d="M159.255 23.9214C160.989 19.455 162.723 13.1496 166.296 12.7292C163.826 12.4665 159.307 12.4665 155.366 14.831C155.261 15.987 155.209 17.2481 155.156 18.4567C157.416 15.6192 159.885 15.6192 159.885 15.6192C159.885 15.6192 158.624 16.9328 157.731 21.189C156.102 29.0708 151.373 32.4863 147.8 32.3812C147.747 32.3812 155.471 33.5372 159.255 23.9214Z" fill="white"/>
<path d="M154.534 20.8211C154.797 16.0395 154.482 9.52382 157.739 8C155.06 8.578 150.173 10.2069 147.178 14.4631C143.395 19.8753 147.913 26.0756 147.073 30.5945C147.808 29.1758 148.491 26.7062 148.281 22.5025C147.913 14.2004 152.59 12.7291 152.59 12.7291C152.59 12.7291 151.802 14.358 152.275 18.7193C153.221 26.7062 149.753 31.4353 146.337 32.4862C146.285 32.4336 153.956 31.12 154.534 20.8211Z" fill="white"/>
</svg>
